<svg width="127" height="127" viewBox="0 0 127 127" fill="none" xmlns="http://www.w3.org/2000/svg">
<circle cx="63.5" cy="63.5" r="63.5" fill="white"/>
<path d="M62.435 51.5284V51.5891C62.4358 52.7766 62.2355 53.9553 61.8428 55.0733L61.8659 55.0009C61.4841 56.0904 60.8356 57.0625 59.9817 57.8251L59.974 57.8309C59.1646 58.5732 58.0879 59.0256 56.9074 59.0256H56.8151H56.819C55.2615 59.0165 53.77 58.3842 52.6661 57.2649C51.4601 56.1373 50.5219 54.7449 49.9225 53.1932L49.8975 53.1187C49.3165 51.6523 49.0106 50.0878 48.9958 48.5064V48.4379C48.9958 47.2158 49.2053 46.0426 49.5879 44.9537L49.5649 45.0261C49.9466 43.9367 50.5951 42.9646 51.449 42.202L51.4567 42.1961C52.3256 41.3998 53.4607 40.9723 54.6291 41.0014H54.6233C56.1812 41.0082 57.6736 41.6409 58.7762 42.7621C59.9701 43.8897 60.9004 45.2757 61.4986 46.8182L61.5236 46.8926C62.0793 48.2636 62.408 49.8559 62.4254 51.5226V51.5284H62.435ZM52.1585 66.3113L52.1604 66.4758C52.1627 67.9486 51.716 69.3858 50.8819 70.5887L50.8972 70.5652C50.5169 71.1234 50.0096 71.5795 49.4187 71.8946C48.8278 72.2097 48.1708 72.3745 47.5038 72.3749L47.3135 72.371H47.3231C45.7472 72.3533 44.2325 71.747 43.0664 70.6671L43.0721 70.6729C41.8316 69.5906 40.8282 68.2547 40.127 66.7519C39.4259 65.2492 39.0425 63.6131 39.0019 61.9497V61.934L39 61.7734C39 60.236 39.473 58.8102 40.2786 57.641L40.2632 57.6645C40.6589 57.0752 41.1958 56.5986 41.8229 56.2798C42.4501 55.9611 43.1468 55.8107 43.847 55.843H43.8373C45.4132 55.8607 46.9279 56.467 48.0941 57.547L48.0883 57.5411C49.3307 58.6299 50.335 59.9722 51.0361 61.4813C51.7372 62.9903 52.1196 64.6325 52.1585 66.3015V66.3152V66.3113ZM64.0038 65.4848C66.8108 65.6409 69.4992 66.6896 71.6905 68.4833L71.6636 68.4618C74.346 70.4024 76.6572 72.8264 78.4832 75.6143L78.5447 75.7142C80.1905 77.9666 81.1524 80.6608 81.3114 83.464L81.3133 83.5032L81.3171 83.6736C81.3171 84.4648 81.1268 85.213 80.7903 85.8691L80.8019 85.8436C80.479 86.4453 79.9749 86.9252 79.3637 87.2126L79.3445 87.2205C78.785 87.4927 78.1333 87.7062 77.4526 87.8256L77.4065 87.8315C76.6968 87.9455 75.9793 88.0019 75.2608 88H75.1166H75.1243C73.1433 87.8664 71.1998 87.3853 69.3795 86.5781L69.491 86.6231C67.7719 85.8595 65.9392 85.3954 64.0692 85.2502L64.0096 85.2463C61.8889 85.4069 59.924 85.8926 58.0975 86.6545L58.2263 86.6074C56.3217 87.3867 54.3056 87.8457 52.2565 87.9667L52.2027 87.9686C48.5292 87.9712 46.6925 86.4834 46.6925 83.5052C46.7757 81.4183 47.3649 79.3849 48.4074 77.5865L48.3748 77.6453C49.4996 75.4904 50.9128 73.5051 52.5738 71.7462L52.5661 71.754C54.1896 70.0267 56.0463 68.5436 58.0802 67.3493L58.1994 67.2847C59.9365 66.1806 61.927 65.5587 63.9731 65.4809H63.9961L64.0038 65.4848ZM71.1849 59.0276H71.0964C69.9626 59.0288 68.8686 58.6018 68.026 57.829L68.0298 57.8329C67.1827 57.0816 66.537 56.1232 66.1533 55.0479L66.138 55.0009C65.7565 53.9055 65.5633 52.7514 65.5669 51.5891V51.5245V51.5284C65.5842 49.8539 65.913 48.2636 66.4994 46.8064L66.4686 46.8926C67.0644 45.3241 68.0018 43.9138 69.2103 42.768L69.218 42.7621C70.3209 41.6428 71.8122 41.011 73.369 41.0034H73.4593C74.6398 41.0034 75.7165 41.4577 76.5298 42.202L76.5259 42.198C77.368 42.9482 78.0179 43.9 78.4024 44.9831L78.4178 45.0301C78.785 46.0524 78.9965 47.2334 78.9965 48.4633V48.5025V48.5006C78.9799 50.1152 78.6635 51.7121 78.064 53.2069L78.0948 53.1207C77.4986 54.6978 76.5539 56.1138 75.3339 57.2591L75.3262 57.2669C74.2217 58.3833 72.7312 59.0135 71.1753 59.0217H71.1733L71.1849 59.0276ZM84.1626 55.847L84.3395 55.843C85.745 55.843 86.9851 56.5599 87.7272 57.6547L87.7368 57.6684C88.5628 58.8738 89.0039 60.3093 89 61.7793L88.9981 61.9477V61.9399C88.9602 63.6022 88.5796 65.2379 87.8811 66.7407C87.1825 68.2435 86.1816 69.5799 84.9432 70.6632L84.9278 70.6769C83.7635 71.7527 82.2526 72.3568 80.6807 72.3749H80.6769C79.9826 72.4067 79.2917 72.259 78.6684 71.9457C78.0452 71.6324 77.5099 71.1636 77.1123 70.5829L77.1027 70.5691C76.2438 69.3234 75.8016 67.8291 75.8415 66.3074V66.3152C75.8783 64.6471 76.2582 63.0053 76.9566 61.496C77.6551 59.9867 78.6565 58.6434 79.8963 57.5528L79.9117 57.5391C81.0747 56.4666 82.5824 55.8641 84.1511 55.845H84.1549L84.1626 55.847Z" fill="#7C80F4"/>
</svg>
